<?xml version="1.0" encoding="utf-8"?>
<!-- Generator: Adobe Illustrator 22.0.1, SVG Export Plug-In . SVG Version: 6.00 Build 0)  -->
<svg version="1.1" id="Layer_1" xmlns="http://www.w3.org/2000/svg" xmlns:xlink="http://www.w3.org/1999/xlink" x="0px" y="0px"
	 viewBox="0 0 250 280" style="enable-background:new 0 0 250 280;" xml:space="preserve">
<style type="text/css">
	.st0{opacity:0.9;fill:#29387B;}
	.st1{fill:none;}
	.st2{fill:#FFFFFF;}
	.st3{font-family:'Athelas-Regular';}
	.st4{font-size:15px;}
	.st5{opacity:0.56;fill:#FFF200;}
	.st6{font-family:'DINAlternate-Bold';}
	.st7{font-size:10px;}
	.st8{fill:#FFF200;}
</style>
<rect x="0.1" y="-0.1" class="st0" width="250.3" height="282.2"/>
<rect x="32.1" y="125.6" class="st1" width="189.2" height="53.4"/>
<text transform="matrix(1 0 0 1 32.8018 136.0898)"><tspan x="0" y="0" class="st2 st3 st4">Prince Harry and Ms. Meghan </tspan><tspan x="6.2" y="18" class="st2 st3 st4">Markle make their first joint </tspan><tspan x="18" y="36" class="st2 st3 st4">visit to Northern Ireland</tspan></text>
<rect x="57.3" y="201.5" class="st5" width="143.8" height="18.7"/>
<rect x="75.4" y="206.7" class="st1" width="107.1" height="8.5"/>
<text transform="matrix(1 0 0 1 75.4315 213.8294)" class="st2 st6 st7">Published 23 March 2018</text>
<g>
	<path class="st8" d="M114.2,35h0.9l2.9,4.6h0V35h1v6.4h-0.9l-2.9-4.6h0v4.6h-1V35z"/>
	<path class="st8" d="M120.9,35h4.1v0.9h-3.1v1.8h2.7v0.9h-2.7v1.9h3.1v0.9h-4.1V35z"/>
	<path class="st8" d="M125.9,35h1l1,4.6h0l1.3-4.6h0.7l1.2,4.6h0l1-4.6h1l-1.6,6.4h-0.8l-1.2-4.6h0l-1.2,4.6h-0.8L125.9,35z"/>
	<path class="st8" d="M136.4,40.5c0.8,0,1.3-0.3,1.3-0.9c0-0.5-0.3-0.8-0.8-0.9c-0.3,0-0.5-0.1-0.9-0.1c-0.6-0.1-1-0.3-1.3-0.6
		c-0.3-0.3-0.4-0.7-0.4-1.2c0-0.6,0.2-1,0.6-1.4c0.4-0.3,0.9-0.5,1.5-0.5c0.8,0,1.5,0.2,2.1,0.7l-0.5,0.8c-0.5-0.3-1-0.5-1.6-0.5
		c-0.3,0-0.6,0.1-0.8,0.2c-0.2,0.2-0.3,0.4-0.3,0.7c0,0.2,0.1,0.4,0.2,0.5c0.1,0.2,0.4,0.3,0.7,0.3c0.2,0,0.4,0.1,0.7,0.1
		c0.6,0.1,1.1,0.3,1.3,0.7c0.3,0.3,0.4,0.7,0.4,1.2c0,1.2-0.8,1.9-2.3,1.9c-1,0-1.8-0.3-2.5-0.9l0.6-0.7
		C135.1,40.3,135.7,40.5,136.4,40.5z"/>
</g>
</svg>
