<?xml version="1.0" encoding="utf-8"?>
<!-- Generator: Adobe Illustrator 22.0.1, SVG Export Plug-In . SVG Version: 6.00 Build 0)  -->
<svg version="1.1" id="Layer_1" xmlns="http://www.w3.org/2000/svg" xmlns:xlink="http://www.w3.org/1999/xlink" x="0px" y="0px"
	 viewBox="0 0 370 395" style="enable-background:new 0 0 370 395;" xml:space="preserve">
<style type="text/css">
	.st0{opacity:0.93;fill:#29387B;enable-background:new    ;}
	.st1{fill:none;}
	.st2{fill:#FFFFFF;}
</style>
<rect x="0.7" y="0.4" class="st0" width="368.8" height="395.1"/>
<rect x="60" y="57.5" class="st1" width="250" height="280"/>
<g>
	<path class="st2" d="M115.7,190.5v9.9c0,0.3,0.1,0.5,0.4,0.6c0.2,0.1,0.6,0.2,1.2,0.3c0.1,0,0.2,0.1,0.2,0.3c0,0.1,0,0.2,0,0.3
		c-0.4,0-0.8,0-1.3-0.1c-0.4,0-0.9,0-1.3,0c-0.4,0-0.9,0-1.3,0c-0.5,0-0.9,0-1.3,0.1c0-0.1,0-0.2,0-0.3c0-0.2,0.1-0.3,0.2-0.3
		c0.6-0.1,1-0.2,1.2-0.3c0.2-0.1,0.4-0.3,0.4-0.6v-9.9H112c-0.4,0-0.7,0-0.9,0.1c-0.3,0.1-0.5,0.2-0.7,0.3s-0.3,0.3-0.5,0.6
		c-0.1,0.2-0.3,0.5-0.4,0.8c0,0.1-0.1,0.1-0.1,0.1c-0.1,0-0.1,0-0.2,0c-0.1,0-0.3,0-0.4-0.1c0.1-0.4,0.2-0.8,0.3-1.2
		c0.1-0.3,0.1-0.6,0.2-0.9c0-0.2,0.1-0.4,0.2-0.5c0.1-0.1,0.1-0.2,0.3-0.2c0.1,0,0.2,0,0.4,0c0.2,0,0.3,0,0.5,0c0.2,0,0.4,0,0.5,0
		c0.2,0,0.4,0,0.5,0h6.2c0.1,0,0.3,0,0.5,0c0.2,0,0.4,0,0.6,0c0.2,0,0.4,0,0.5,0c0.2,0,0.3,0,0.4,0c0.1,0,0.2,0.1,0.3,0.2
		c0.1,0.1,0.1,0.3,0.2,0.5c0,0.2,0.1,0.5,0.2,0.9c0.1,0.3,0.2,0.7,0.3,1.2c-0.1,0-0.1,0.1-0.2,0.1c-0.1,0-0.1,0-0.2,0
		c0,0-0.1,0-0.2,0c-0.1,0-0.1-0.1-0.1-0.1c-0.1-0.3-0.3-0.6-0.4-0.8c-0.1-0.2-0.3-0.4-0.5-0.6c-0.2-0.1-0.4-0.3-0.6-0.3
		c-0.3-0.1-0.6-0.1-0.9-0.1H115.7z"/>
	<path class="st2" d="M124.3,195.6c0,0,0.1-0.1,0.3-0.3c0.2-0.2,0.4-0.4,0.7-0.6c0.3-0.2,0.6-0.4,1-0.6c0.4-0.2,0.8-0.3,1.2-0.3
		c0.3,0,0.6,0,0.9,0.1s0.5,0.2,0.7,0.4c0.2,0.2,0.4,0.5,0.5,0.8c0.1,0.3,0.2,0.7,0.2,1.2v4.5c0,0.2,0.1,0.3,0.3,0.4
		c0.2,0.1,0.5,0.2,0.8,0.2c0.1,0,0.1,0.1,0.1,0.2c0,0.1,0,0.2,0,0.3c-0.3,0-0.6,0-0.9-0.1c-0.3,0-0.6,0-1,0c-0.3,0-0.7,0-1,0
		c-0.3,0-0.7,0-1,0.1c0-0.1,0-0.2,0-0.3c0-0.1,0.1-0.2,0.2-0.2c0.1,0,0.2,0,0.3-0.1c0.1,0,0.2-0.1,0.3-0.1c0.1-0.1,0.2-0.1,0.3-0.2
		c0.1-0.1,0.1-0.2,0.1-0.3v-3.6c0-0.3,0-0.6-0.1-0.9c0-0.3-0.1-0.5-0.2-0.7c-0.1-0.2-0.2-0.3-0.4-0.4c-0.2-0.1-0.4-0.2-0.7-0.2
		c-0.3,0-0.6,0.1-0.9,0.2c-0.3,0.1-0.6,0.3-0.8,0.5c-0.2,0.2-0.4,0.5-0.5,0.8c-0.1,0.3-0.2,0.6-0.2,1v3.4c0,0.2,0.1,0.3,0.3,0.4
		c0.2,0.1,0.4,0.2,0.7,0.2c0.1,0,0.2,0.1,0.2,0.2c0,0.1,0,0.2,0,0.3c-0.3,0-0.6,0-0.9-0.1c-0.3,0-0.6,0-1,0c-0.4,0-0.7,0-1,0
		c-0.3,0-0.6,0-0.9,0.1c0-0.1,0-0.2,0-0.3c0-0.1,0-0.2,0.1-0.2c0.3-0.1,0.5-0.1,0.8-0.2c0.2-0.1,0.3-0.2,0.3-0.4v-10
		c0-0.4-0.1-0.7-0.2-0.8c-0.1-0.1-0.4-0.2-0.9-0.3c-0.2,0-0.2-0.1-0.2-0.3c0-0.1,0-0.2,0-0.3c0.2,0,0.4,0,0.7,0c0.3,0,0.5,0,0.8-0.1
		c0.3,0,0.5-0.1,0.8-0.1c0.2-0.1,0.4-0.1,0.5-0.1c0.1,0,0.2,0,0.2,0.1c0,0.1,0.1,0.1,0.1,0.2c0,0.2,0,0.5-0.1,0.7
		c0,0.3-0.1,0.6-0.1,1V195.6z"/>
	<path class="st2" d="M138.7,200c0.1-0.1,0.2-0.1,0.3-0.1c0.1,0,0.2,0.1,0.4,0.3c-0.2,0.2-0.3,0.4-0.6,0.6c-0.2,0.2-0.5,0.4-0.8,0.6
		s-0.6,0.3-1,0.4c-0.4,0.1-0.8,0.1-1.3,0.1c-0.5,0-1-0.1-1.4-0.2c-0.4-0.2-0.8-0.4-1.2-0.7c-0.3-0.3-0.6-0.7-0.8-1.2
		c-0.2-0.5-0.3-1.1-0.3-1.7c0-0.6,0.1-1.2,0.4-1.7c0.2-0.5,0.6-1,0.9-1.4c0.4-0.4,0.8-0.7,1.3-0.9c0.5-0.2,0.9-0.3,1.3-0.3
		c1.2,0,2,0.3,2.5,1c0.5,0.7,0.8,1.5,0.8,2.6c0,0.1,0,0.1-0.1,0.1l-5.4,0.2c0,0.5,0.1,0.9,0.2,1.3c0.1,0.4,0.3,0.8,0.6,1.1
		s0.5,0.5,0.9,0.7c0.4,0.2,0.7,0.3,1.2,0.3c0.4,0,0.8-0.1,1.1-0.3C138.2,200.6,138.5,200.3,138.7,200z M135.7,194.4
		c-0.6,0-1.1,0.2-1.4,0.7c-0.3,0.5-0.5,1.1-0.5,1.9l3.5-0.2c0.2,0,0.3-0.1,0.3-0.2c0-0.2,0-0.5-0.1-0.7s-0.2-0.5-0.3-0.7
		c-0.1-0.2-0.3-0.4-0.6-0.5C136.3,194.5,136.1,194.4,135.7,194.4z"/>
	<path class="st2" d="M149.4,196.3H148v4.1c0,0.3,0.1,0.5,0.4,0.6c0.3,0.1,0.6,0.2,1.2,0.2c0.1,0,0.2,0.1,0.2,0.3c0,0.1,0,0.2,0,0.3
		c-0.3,0-0.7,0-1.2-0.1c-0.5,0-0.9,0-1.4,0c-0.3,0-0.7,0-1.1,0c-0.4,0-0.8,0-1.2,0.1c0-0.1,0-0.2,0-0.3c0-0.2,0.1-0.3,0.2-0.3
		c0.5-0.1,0.8-0.2,1-0.3c0.2-0.1,0.3-0.3,0.3-0.5V191c0-0.2-0.1-0.4-0.3-0.5c-0.2-0.1-0.5-0.2-1-0.3c-0.1,0-0.2-0.1-0.2-0.3
		c0-0.1,0-0.2,0-0.3c0.4,0,0.8,0,1.2,0.1c0.4,0,0.8,0,1.1,0h2.5c1.3,0,2.3,0.3,3,0.9c0.7,0.6,1,1.4,1,2.4c0,0.3,0,0.6-0.1,0.9
		s-0.2,0.6-0.4,0.9c-0.2,0.3-0.4,0.5-0.7,0.8c-0.3,0.2-0.7,0.4-1.1,0.6l3.1,4.3c0.2,0.3,0.5,0.5,0.8,0.7c0.3,0.1,0.6,0.2,0.8,0.3
		c0.1,0,0.2,0.1,0.2,0.3c0,0.1,0,0.2,0,0.3c-0.3,0-0.6,0-1-0.1c-0.4,0-0.8,0-1.1,0c-0.3,0-0.5-0.1-0.8-0.3c-0.3-0.2-0.5-0.5-0.8-0.9
		L149.4,196.3z M149,195.6c0.9,0,1.5-0.2,2-0.5c0.5-0.4,0.7-1,0.7-1.9c0-0.4,0-0.7-0.1-1.1c-0.1-0.3-0.3-0.6-0.5-0.8
		c-0.2-0.2-0.5-0.4-0.9-0.6c-0.4-0.1-0.8-0.2-1.3-0.2H148v5.1H149z"/>
	<path class="st2" d="M156.4,197.9c0-0.6,0.1-1.1,0.3-1.6c0.2-0.5,0.5-0.9,0.9-1.3c0.4-0.4,0.8-0.7,1.3-0.9c0.5-0.2,1-0.3,1.6-0.3
		c0.6,0,1.2,0.1,1.7,0.3c0.5,0.2,0.9,0.5,1.3,0.8c0.4,0.4,0.6,0.8,0.9,1.3c0.2,0.5,0.3,1.1,0.3,1.7c0,0.6-0.1,1.1-0.3,1.6
		c-0.2,0.5-0.5,0.9-0.9,1.3c-0.4,0.4-0.8,0.7-1.3,0.9c-0.5,0.2-1,0.3-1.6,0.3c-0.6,0-1.2-0.1-1.7-0.3c-0.5-0.2-0.9-0.5-1.3-0.8
		c-0.4-0.4-0.6-0.8-0.9-1.3C156.5,199,156.4,198.5,156.4,197.9z M158.2,197.2c0,0.5,0,0.9,0.1,1.4c0.1,0.5,0.3,0.9,0.5,1.3
		c0.2,0.4,0.5,0.7,0.8,1c0.3,0.3,0.7,0.4,1.2,0.4c0.7,0,1.3-0.2,1.6-0.7c0.4-0.5,0.6-1.1,0.6-1.9c0-0.5,0-0.9-0.1-1.4
		c-0.1-0.5-0.2-1-0.4-1.4c-0.2-0.4-0.5-0.8-0.8-1c-0.3-0.3-0.7-0.4-1.2-0.4c-0.7,0-1.2,0.2-1.6,0.7
		C158.4,195.5,158.2,196.3,158.2,197.2z"/>
	<path class="st2" d="M170,199.7c0.2-0.5,0.4-1,0.6-1.5c0.2-0.5,0.4-1,0.6-1.4c0.2-0.4,0.3-0.8,0.5-1.2c0.1-0.4,0.2-0.6,0.2-0.8
		c0-0.1,0-0.2-0.1-0.3c-0.1-0.1-0.2-0.1-0.3-0.1c-0.1,0-0.2-0.1-0.3-0.1c-0.1,0-0.1-0.1-0.1-0.2c0,0,0-0.1,0-0.1c0,0,0-0.1,0-0.1
		c0.5,0,1,0.1,1.5,0.1c0.3,0,0.5,0,0.7,0c0.2,0,0.4,0,0.6,0c0,0,0,0.1,0,0.1c0,0.1,0,0.1,0,0.1c0,0.1-0.1,0.2-0.2,0.3
		c-0.2,0-0.3,0.1-0.4,0.1c-0.1,0-0.2,0.1-0.3,0.1c-0.1,0.1-0.1,0.1-0.2,0.2c-0.1,0.1-0.1,0.2-0.2,0.4l-3.8,9
		c-0.2,0.6-0.6,1.1-1.1,1.4c-0.5,0.3-1,0.5-1.6,0.5c-0.1,0-0.2,0-0.2-0.1c0-0.1-0.1-0.1-0.1-0.2c0-0.1,0-0.3,0.1-0.4
		c0-0.2,0.1-0.3,0.1-0.4c0.1-0.1,0.1-0.2,0.2-0.3c0.1-0.1,0.2-0.1,0.3-0.1c0.1,0,0.2,0,0.3,0c0.1,0,0.2,0,0.3,0
		c0.3,0,0.6-0.1,0.7-0.2c0.2-0.1,0.3-0.3,0.4-0.6l0.9-2.2l-2.9-6.4c-0.1-0.2-0.2-0.3-0.2-0.4c-0.1-0.1-0.1-0.2-0.2-0.3
		c-0.1-0.1-0.2-0.1-0.3-0.1c-0.1,0-0.2-0.1-0.4-0.1c-0.2,0-0.2-0.1-0.2-0.3c0,0,0-0.1,0-0.1c0,0,0-0.1,0-0.1c0.2,0,0.5,0,0.8,0
		c0.3,0,0.5,0,0.9,0h0.5c0.3,0,0.6,0,0.8,0c0.3,0,0.5,0,0.8,0c0,0,0,0.1,0,0.1c0,0.1,0,0.1,0,0.1c0,0.1-0.1,0.2-0.2,0.2
		c-0.3,0-0.5,0.1-0.6,0.2c-0.1,0.1-0.1,0.1-0.1,0.2c0,0.1,0,0.2,0.1,0.5c0.1,0.2,0.2,0.6,0.4,0.9L170,199.7z"/>
	<path class="st2" d="M181.8,201.3c0.1,0,0.2,0.1,0.2,0.4c-0.3,0.2-0.7,0.3-1.2,0.3c-0.3,0-0.5,0-0.7-0.1c-0.2-0.1-0.4-0.2-0.5-0.3
		c-0.1-0.1-0.2-0.3-0.3-0.5c-0.1-0.2-0.1-0.4-0.2-0.5c-0.3,0.6-0.7,0.9-1.1,1.1c-0.4,0.2-0.9,0.3-1.5,0.3c-0.2,0-0.5,0-0.8-0.1
		c-0.3,0-0.5-0.1-0.8-0.3c-0.2-0.1-0.5-0.3-0.6-0.6c-0.2-0.2-0.2-0.6-0.2-1c0-0.5,0.1-0.8,0.3-1.2c0.2-0.3,0.5-0.6,0.8-0.8
		c0.3-0.2,0.7-0.4,1.1-0.5c0.4-0.1,0.8-0.2,1.2-0.3c0.2,0,0.4-0.1,0.6-0.1c0.2,0,0.3-0.1,0.5-0.1c0.2,0,0.3-0.1,0.3-0.2
		c0-0.1,0.1-0.3,0.1-0.5c0-0.6-0.1-1.1-0.3-1.4c-0.2-0.4-0.6-0.6-1.2-0.6c-0.2,0-0.4,0-0.5,0.1c-0.1,0.1-0.3,0.1-0.4,0.2
		c-0.1,0.1-0.2,0.2-0.3,0.4c-0.1,0.2-0.1,0.4-0.2,0.6c0,0.1-0.1,0.2-0.3,0.3c-0.1,0.1-0.3,0.1-0.7,0.2c-0.1,0-0.2,0-0.3,0.1
		c-0.1,0-0.2,0-0.3,0c-0.1,0-0.2-0.1-0.2-0.4c0-0.3,0.1-0.5,0.3-0.8c0.2-0.3,0.5-0.5,0.8-0.7c0.3-0.2,0.7-0.4,1.1-0.5
		c0.4-0.1,0.7-0.2,1.1-0.2c0.4,0,0.8,0,1.2,0.1c0.3,0.1,0.6,0.2,0.9,0.4c0.3,0.2,0.4,0.5,0.6,0.8c0.1,0.3,0.2,0.8,0.2,1.3v3.2
		c0,0.4,0,0.7,0,0.9c0,0.2,0.1,0.3,0.1,0.5c0.1,0.2,0.2,0.3,0.3,0.3c0.1,0.1,0.2,0.1,0.3,0.1c0.1,0,0.2,0,0.3,0
		C181.7,201.3,181.8,201.3,181.8,201.3z M179,197.6l-0.6,0.1c-0.3,0.1-0.6,0.1-0.9,0.2s-0.6,0.2-0.8,0.4c-0.2,0.2-0.4,0.3-0.6,0.6
		c-0.1,0.2-0.2,0.5-0.2,0.9c0,0.5,0.1,0.8,0.4,1.1c0.2,0.2,0.5,0.4,0.9,0.4c0.2,0,0.5-0.1,0.7-0.2c0.2-0.1,0.4-0.3,0.6-0.4
		c0.2-0.2,0.3-0.4,0.4-0.7c0.1-0.3,0.2-0.5,0.2-0.9V197.6z"/>
	<path class="st2" d="M186.9,201.9c-0.3,0-0.7,0-1-0.1c-0.3,0-0.7,0-1,0c-0.3,0-0.7,0-1,0c-0.4,0-0.7,0-1,0.1c0-0.1,0-0.2,0-0.3
		c0-0.1,0.1-0.2,0.2-0.2c0.3-0.1,0.5-0.1,0.8-0.2c0.2-0.1,0.4-0.2,0.4-0.4v-10c0-0.4-0.1-0.7-0.2-0.8c-0.2-0.1-0.4-0.2-0.9-0.3
		c-0.2,0-0.2-0.1-0.2-0.3c0-0.1,0-0.2,0-0.3c0.2,0,0.4,0,0.7,0c0.3,0,0.5,0,0.8-0.1c0.3,0,0.5-0.1,0.8-0.1c0.2-0.1,0.4-0.1,0.5-0.1
		c0.1,0,0.2,0,0.2,0.1c0,0.1,0.1,0.1,0.1,0.2c0,0.2,0,0.5-0.1,0.7c0,0.3-0.1,0.6-0.1,1v9.9c0,0.2,0.1,0.3,0.3,0.4
		c0.2,0.1,0.5,0.2,0.8,0.2c0.1,0,0.1,0.1,0.1,0.2C187,201.6,187,201.7,186.9,201.9z"/>
	<path class="st2" d="M200.8,189.5c0.1,0,0.1,0,0.2,0c0.1,0,0.2,0.1,0.3,0.2l3.1,9l2.6-7.5c0-0.1,0-0.1,0.1-0.2c0-0.1,0-0.1,0-0.2
		c0-0.2-0.1-0.3-0.3-0.4c-0.2-0.1-0.5-0.2-0.9-0.2c-0.1,0-0.2-0.1-0.2-0.3c0-0.1,0-0.2,0-0.3c0.3,0,0.7,0,1,0.1c0.4,0,0.7,0,0.9,0
		c0.3,0,0.6,0,1,0c0.3,0,0.6,0,0.8-0.1c0,0,0,0.1,0,0.1s0,0.1,0,0.1c0,0.2-0.1,0.3-0.2,0.3c-0.4,0-0.7,0.1-0.8,0.2
		c-0.2,0.1-0.3,0.3-0.4,0.5l-3.9,11c-0.1,0-0.1,0-0.2,0c-0.1,0-0.3-0.1-0.3-0.3l-3.1-8.7l-3.2,9c-0.1,0-0.1,0-0.2,0
		c-0.1,0-0.3-0.1-0.3-0.3l-4-10.8c-0.1-0.2-0.2-0.3-0.3-0.4c-0.2-0.1-0.5-0.2-0.9-0.2c-0.1,0-0.2-0.2-0.2-0.4c0-0.1,0-0.2,0-0.3
		c0.2,0,0.4,0,0.6,0c0.2,0,0.4,0,0.6,0c0.2,0,0.4,0,0.6,0c0.2,0,0.4,0,0.5,0c0.3,0,0.7,0,1.1,0c0.4,0,0.9,0,1.2-0.1
		c0,0.1,0,0.2,0,0.3c0,0.2-0.1,0.3-0.2,0.3c-0.4,0-0.6,0.1-0.8,0.2c-0.2,0.1-0.3,0.2-0.3,0.4c0,0.1,0,0.1,0.1,0.2l2.8,7.7
		L200.8,189.5z"/>
	<path class="st2" d="M215.3,200c0.1-0.1,0.2-0.1,0.3-0.1c0.1,0,0.2,0.1,0.4,0.3c-0.2,0.2-0.3,0.4-0.6,0.6c-0.2,0.2-0.5,0.4-0.8,0.6
		c-0.3,0.2-0.6,0.3-1,0.4c-0.4,0.1-0.8,0.1-1.3,0.1c-0.5,0-1-0.1-1.4-0.2c-0.4-0.2-0.8-0.4-1.2-0.7c-0.3-0.3-0.6-0.7-0.8-1.2
		c-0.2-0.5-0.3-1.1-0.3-1.7c0-0.6,0.1-1.2,0.4-1.7s0.6-1,0.9-1.4c0.4-0.4,0.8-0.7,1.3-0.9c0.5-0.2,0.9-0.3,1.3-0.3
		c1.2,0,2,0.3,2.5,1c0.5,0.7,0.8,1.5,0.8,2.6c0,0.1,0,0.1-0.1,0.1l-5.4,0.2c0,0.5,0.1,0.9,0.2,1.3c0.1,0.4,0.3,0.8,0.6,1.1
		c0.2,0.3,0.5,0.5,0.9,0.7c0.4,0.2,0.7,0.3,1.2,0.3c0.4,0,0.8-0.1,1.1-0.3C214.7,200.6,215,200.3,215.3,200z M212.3,194.4
		c-0.6,0-1.1,0.2-1.4,0.7c-0.3,0.5-0.5,1.1-0.5,1.9l3.5-0.2c0.2,0,0.3-0.1,0.3-0.2c0-0.2,0-0.5-0.1-0.7c-0.1-0.3-0.2-0.5-0.3-0.7
		c-0.1-0.2-0.3-0.4-0.6-0.5S212.6,194.4,212.3,194.4z"/>
	<path class="st2" d="M224.9,200.1c0,0.1,0,0.3,0,0.4c0,0.1,0.1,0.2,0.1,0.3c0.1,0.1,0.2,0.1,0.3,0.2c0.1,0,0.3,0.1,0.5,0.1
		c0.2,0,0.2,0.1,0.2,0.2c0,0.1,0,0.2,0,0.3c-0.2,0-0.4,0-0.6,0c-0.3,0-0.5,0-0.7,0.1c-0.3,0.1-0.5,0.1-0.7,0.2
		c-0.2,0.1-0.4,0.1-0.5,0.1c-0.2,0-0.3-0.1-0.3-0.3v-1.4c-0.2,0.2-0.3,0.5-0.5,0.7c-0.2,0.2-0.4,0.4-0.6,0.6
		c-0.2,0.2-0.5,0.3-0.8,0.4c-0.3,0.1-0.7,0.1-1.1,0.1c-0.4,0-0.8-0.1-1.2-0.3c-0.4-0.2-0.7-0.4-1-0.8c-0.3-0.3-0.5-0.8-0.7-1.3
		c-0.2-0.5-0.3-1.1-0.3-1.7c0-0.7,0.1-1.3,0.4-1.8c0.3-0.5,0.6-1,1-1.4c0.4-0.4,0.8-0.6,1.3-0.8c0.5-0.2,0.9-0.3,1.3-0.3
		c0.5,0,0.9,0,1.3,0.1c0.4,0.1,0.7,0.2,1.1,0.4v-3.5c0-0.4-0.1-0.6-0.2-0.8c-0.1-0.2-0.4-0.3-0.8-0.3c-0.2,0-0.2-0.1-0.2-0.3
		c0-0.1,0-0.2,0-0.3c0.2,0,0.4,0,0.7,0c0.3,0,0.5,0,0.7-0.1c0.3,0,0.5-0.1,0.8-0.1c0.2-0.1,0.4-0.1,0.5-0.1c0.2,0,0.3,0.1,0.3,0.3
		c0,0.2,0,0.5-0.1,0.7c0,0.3-0.1,0.6-0.1,1V200.1z M223.4,195.4c-0.3-0.3-0.6-0.6-1-0.8c-0.4-0.2-0.8-0.3-1.3-0.3
		c-0.7,0-1.3,0.3-1.6,0.9c-0.4,0.6-0.5,1.4-0.5,2.3c0,0.5,0.1,0.9,0.2,1.3c0.1,0.4,0.3,0.8,0.5,1.1c0.2,0.3,0.5,0.6,0.7,0.8
		c0.3,0.2,0.6,0.3,1,0.3c0.2,0,0.5-0.1,0.7-0.2c0.2-0.1,0.5-0.3,0.7-0.6c0.2-0.2,0.4-0.5,0.5-0.8c0.1-0.3,0.2-0.6,0.2-0.9V195.4z"/>
	<path class="st2" d="M235.1,200.1c0,0.1,0,0.3,0,0.4c0,0.1,0.1,0.2,0.1,0.3c0.1,0.1,0.2,0.1,0.3,0.2c0.1,0,0.3,0.1,0.5,0.1
		c0.2,0,0.2,0.1,0.2,0.2c0,0.1,0,0.2,0,0.3c-0.2,0-0.4,0-0.6,0c-0.3,0-0.5,0-0.7,0.1c-0.3,0.1-0.5,0.1-0.7,0.2
		c-0.2,0.1-0.4,0.1-0.5,0.1c-0.2,0-0.3-0.1-0.3-0.3v-1.4c-0.2,0.2-0.3,0.5-0.5,0.7c-0.2,0.2-0.4,0.4-0.6,0.6
		c-0.2,0.2-0.5,0.3-0.8,0.4c-0.3,0.1-0.7,0.1-1.1,0.1c-0.4,0-0.8-0.1-1.2-0.3c-0.4-0.2-0.7-0.4-1-0.8c-0.3-0.3-0.5-0.8-0.7-1.3
		c-0.2-0.5-0.3-1.1-0.3-1.7c0-0.7,0.1-1.3,0.4-1.8c0.3-0.5,0.6-1,1-1.4c0.4-0.4,0.8-0.6,1.3-0.8c0.5-0.2,0.9-0.3,1.3-0.3
		c0.5,0,0.9,0,1.3,0.1c0.4,0.1,0.7,0.2,1.1,0.4v-3.5c0-0.4-0.1-0.6-0.2-0.8s-0.4-0.3-0.8-0.3c-0.2,0-0.2-0.1-0.2-0.3
		c0-0.1,0-0.2,0-0.3c0.2,0,0.4,0,0.7,0c0.3,0,0.5,0,0.7-0.1c0.3,0,0.5-0.1,0.8-0.1c0.2-0.1,0.4-0.1,0.5-0.1c0.2,0,0.3,0.1,0.3,0.3
		c0,0.2,0,0.5-0.1,0.7c0,0.3-0.1,0.6-0.1,1V200.1z M233.5,195.4c-0.3-0.3-0.6-0.6-1-0.8c-0.4-0.2-0.8-0.3-1.3-0.3
		c-0.7,0-1.3,0.3-1.6,0.9c-0.4,0.6-0.5,1.4-0.5,2.3c0,0.5,0.1,0.9,0.2,1.3c0.1,0.4,0.3,0.8,0.5,1.1c0.2,0.3,0.5,0.6,0.7,0.8
		c0.3,0.2,0.6,0.3,1,0.3c0.2,0,0.5-0.1,0.7-0.2c0.2-0.1,0.5-0.3,0.7-0.6c0.2-0.2,0.4-0.5,0.5-0.8c0.1-0.3,0.2-0.6,0.2-0.9V195.4z"/>
	<path class="st2" d="M239.4,201.8c-0.2,0-0.4,0-0.6,0c-0.2,0-0.4,0-0.6,0c-0.2,0-0.3,0-0.5,0c-0.1,0-0.2,0-0.3,0c0,0,0-0.1,0-0.1
		c0-0.1,0-0.1,0-0.2c0-0.1,0.1-0.2,0.2-0.2c0.3-0.1,0.6-0.1,0.8-0.2c0.2-0.1,0.3-0.2,0.3-0.4v-5c0-0.4-0.1-0.6-0.2-0.8
		c-0.1-0.2-0.4-0.3-0.8-0.3c-0.2,0-0.2-0.1-0.2-0.3c0-0.1,0-0.1,0-0.2c0.2,0,0.4,0,0.7,0c0.3,0,0.5,0,0.7-0.1c0.3,0,0.5-0.1,0.8-0.2
		c0.2-0.1,0.4-0.1,0.5-0.1c0.2,0,0.3,0.1,0.3,0.3c0,0.2,0,0.4-0.1,0.6c0,0.2-0.1,0.6-0.1,1v5.1c0,0.2,0.1,0.3,0.3,0.4
		c0.2,0.1,0.5,0.2,0.8,0.2c0.1,0,0.1,0.1,0.1,0.2c0,0,0,0.1,0,0.2c0,0.1,0,0.1,0,0.1c0,0-0.1,0-0.3,0c-0.1,0-0.3,0-0.5,0
		c-0.2,0-0.4,0-0.6,0C239.9,201.8,239.6,201.8,239.4,201.8z M238.3,190.6c0-0.3,0.1-0.6,0.3-0.8c0.2-0.2,0.5-0.3,0.8-0.3
		c0.3,0,0.5,0.1,0.7,0.3c0.2,0.2,0.3,0.5,0.3,0.8c0,0.3-0.1,0.6-0.3,0.8c-0.2,0.2-0.4,0.3-0.7,0.3c-0.3,0-0.6-0.1-0.8-0.3
		C238.5,191.2,238.3,190.9,238.3,190.6z"/>
	<path class="st2" d="M250.7,200.7c0,0.2,0.1,0.3,0.3,0.4c0.2,0.1,0.5,0.2,0.7,0.2c0.1,0,0.2,0.1,0.2,0.2c0,0.1,0,0.2,0,0.3
		c-0.3,0-0.6,0-0.9-0.1c-0.3,0-0.6,0-1,0c-0.3,0-0.7,0-1,0c-0.3,0-0.7,0-1,0.1c0-0.1,0-0.2,0-0.3c0-0.1,0.1-0.2,0.2-0.2
		c0.3-0.1,0.5-0.1,0.7-0.2c0.2-0.1,0.3-0.2,0.3-0.4v-3.6c0-0.3,0-0.6-0.1-0.9c0-0.3-0.1-0.5-0.2-0.7c-0.1-0.2-0.2-0.3-0.4-0.4
		c-0.2-0.1-0.4-0.2-0.7-0.2c-0.3,0-0.6,0.1-0.9,0.2c-0.3,0.1-0.6,0.3-0.8,0.5c-0.2,0.2-0.4,0.5-0.5,0.8c-0.1,0.3-0.2,0.6-0.2,1v3.4
		c0,0.2,0.1,0.3,0.3,0.4c0.2,0.1,0.4,0.2,0.7,0.2c0.1,0,0.2,0.1,0.2,0.2c0,0.1,0,0.2,0,0.3c-0.3,0-0.6,0-0.9-0.1c-0.3,0-0.6,0-1,0
		c-0.4,0-0.7,0-1,0c-0.3,0-0.6,0-0.9,0.1c0-0.1,0-0.2,0-0.3c0-0.1,0.1-0.2,0.2-0.2c0.3-0.1,0.5-0.1,0.7-0.2c0.2-0.1,0.3-0.2,0.3-0.4
		v-5c0-0.4-0.1-0.6-0.2-0.8c-0.1-0.2-0.4-0.3-0.8-0.3c-0.2,0-0.2-0.1-0.2-0.3c0-0.1,0-0.1,0-0.2c0.2,0,0.4,0,0.7,0
		c0.3,0,0.5,0,0.7-0.1c0.3,0,0.5-0.1,0.8-0.2c0.2-0.1,0.4-0.1,0.5-0.1c0.2,0,0.3,0.1,0.3,0.3c0,0.2,0,0.4-0.1,0.6
		c0,0.2-0.1,0.6-0.1,1c0.5-0.6,1-1.1,1.5-1.4c0.5-0.3,1-0.5,1.6-0.5c0.8,0,1.3,0.2,1.7,0.7c0.4,0.4,0.6,1,0.6,1.8V200.7z"/>
	<path class="st2" d="M254.1,201.4c-0.5-0.3-0.8-0.8-0.8-1.3c0-0.6,0.4-1.1,1.2-1.5c-0.3-0.2-0.6-0.5-0.8-0.8
		c-0.2-0.4-0.3-0.8-0.3-1.3c0-0.3,0.1-0.7,0.3-1c0.2-0.3,0.4-0.6,0.7-0.9s0.6-0.4,1-0.6c0.4-0.1,0.8-0.2,1.2-0.2
		c0.6,0,1.1,0.1,1.5,0.2s0.7,0.3,1,0.6l1.8-0.8c0.1,0.1,0.2,0.2,0.3,0.3c0.1,0.1,0.1,0.3,0.1,0.4c0,0.3-0.1,0.4-0.3,0.4l-0.7,0
		c-0.2,0-0.5,0-0.9,0.1c0.3,0.4,0.4,0.9,0.4,1.4c0,0.4-0.1,0.7-0.3,1.1c-0.2,0.3-0.4,0.6-0.7,0.8c-0.3,0.2-0.6,0.4-1.1,0.5
		c-0.4,0.1-0.8,0.2-1.3,0.2c-0.3,0-0.5,0-0.7,0c-0.2,0-0.5-0.1-0.7-0.2c-0.3,0.1-0.5,0.3-0.7,0.4c-0.1,0.1-0.2,0.3-0.2,0.4
		c0,0.1,0,0.2,0.1,0.3c0.1,0.1,0.2,0.2,0.3,0.2c0.2,0.1,0.4,0.1,0.7,0.2c0.3,0,0.7,0.1,1.2,0.1c0.6,0,1.1,0,1.6,0.1
		c0.5,0.1,0.9,0.2,1.3,0.4c0.4,0.2,0.7,0.5,0.9,0.8c0.2,0.3,0.3,0.7,0.3,1.2c0,0.5-0.1,1-0.3,1.4c-0.2,0.4-0.5,0.8-0.9,1
		c-0.4,0.3-0.8,0.5-1.3,0.7c-0.5,0.2-1.1,0.2-1.7,0.2c-1.2,0-2.1-0.2-2.7-0.6c-0.7-0.4-1-1.1-1-2c0-0.3,0-0.5,0.1-0.8
		c0.1-0.2,0.2-0.4,0.3-0.6c0.1-0.2,0.3-0.3,0.4-0.5S253.9,201.5,254.1,201.4z M254.5,201.6c-0.3,0.3-0.5,0.6-0.5,1.1
		c0,0.1,0,0.2,0,0.3c0,0.1,0,0.2,0,0.3c0,0.3,0.1,0.5,0.2,0.8c0.1,0.3,0.3,0.5,0.5,0.7c0.2,0.2,0.5,0.4,0.9,0.5
		c0.3,0.1,0.7,0.2,1.2,0.2c0.9,0,1.5-0.2,1.9-0.6c0.4-0.4,0.6-0.8,0.6-1.4c0-0.2-0.1-0.5-0.1-0.7c-0.1-0.2-0.3-0.4-0.5-0.5
		c-0.2-0.1-0.5-0.3-0.9-0.3c-0.4-0.1-0.9-0.1-1.4-0.1c-0.3,0-0.6,0-0.9-0.1C255,201.7,254.8,201.7,254.5,201.6z M256.6,198.3
		c0.5,0,0.8-0.1,1.1-0.4s0.4-0.7,0.4-1.2c0-0.3,0-0.5-0.1-0.8c-0.1-0.3-0.2-0.5-0.3-0.7c-0.1-0.2-0.3-0.4-0.5-0.5
		c-0.2-0.1-0.5-0.2-0.9-0.2c-0.4,0-0.8,0.1-1,0.4s-0.4,0.7-0.4,1.2c0,0.3,0,0.6,0.1,0.8c0.1,0.3,0.1,0.5,0.3,0.8
		c0.1,0.2,0.3,0.4,0.5,0.5C256,198.2,256.3,198.3,256.6,198.3z"/>
</g>
</svg>
